<?xml version="1.0" encoding="UTF-8"?>
<svg id="a" data-name="Layer 1" xmlns="http://www.w3.org/2000/svg" viewBox="0 0 1500 1500">
  <defs>
    <style>
      .e {
        fill: #1b4add;
      }
    </style>
  </defs>
  <g id="b" data-name="version 1">
    <path class="e" d="m1058.56,1007.08l-188.71-517.33c-1.87-5.11-9.1-5.11-10.96,0l-33.99,93.18c-.94,2.58-.94,5.42,0,8l151.86,416.31c1.68,4.61,6.06,7.67,10.96,7.67h65.36c4.05,0,6.87-4.03,5.48-7.83h0Zm-245.87-360.62c-1.86-5.11-9.1-5.11-10.96,0l-33.99,93.18c-.94,2.58-.94,5.42,0,8l94.69,259.6c1.68,4.61,6.06,7.67,10.96,7.67h65.36c4.05,0,6.87-4.03,5.48-7.83l-131.54-360.62h0Zm-84.66-223.51h-65.36c-4.9,0-9.28,3.06-10.96,7.67l-210.28,576.45c-1.39,3.81,1.43,7.83,5.48,7.83h65.36c4.9,0,9.28-3.06,10.96-7.67l210.27-576.45c1.39-3.81-1.43-7.83-5.48-7.83h0Zm114.33,0h-65.36c-4.9,0-9.28,3.06-10.96,7.67l-210.27,576.45c-1.39,3.81,1.43,7.83,5.48,7.83h65.36c4.9,0,9.28-3.06,10.96-7.67l210.28-576.45c1.39-3.81-1.43-7.83-5.48-7.83h0Z"/>
    <path class="e" d="m750,260c66.18,0,130.34,12.95,190.71,38.48,58.34,24.68,110.75,60.02,155.77,105.04,45.02,45.02,80.36,97.43,105.04,155.77,25.53,60.37,38.48,124.54,38.48,190.71s-12.95,130.34-38.48,190.71c-24.68,58.34-60.02,110.75-105.04,155.77-45.02,45.02-97.43,80.36-155.77,105.04-60.37,25.53-124.54,38.48-190.71,38.48s-130.34-12.95-190.71-38.48c-58.34-24.68-110.75-60.02-155.77-105.04-45.02-45.02-80.36-97.43-105.04-155.77-25.53-60.37-38.48-124.54-38.48-190.71s12.95-130.34,38.48-190.71c24.68-58.34,60.02-110.75,105.04-155.77,45.02-45.02,97.43-80.36,155.77-105.04,60.37-25.53,124.54-38.48,190.71-38.48m0-60c-303.76,0-550,246.24-550,550s246.24,550,550,550,550-246.24,550-550S1053.76,200,750,200h0Z"/>
  </g>
</svg>